<svg xmlns="http://www.w3.org/2000/svg" xmlns:xlink="http://www.w3.org/1999/xlink" width="500" zoomAndPan="magnify" viewBox="0 0 375 374.999991" height="500" preserveAspectRatio="xMidYMid meet" version="1.0"><defs><g/></defs><g fill="#2d5cdd" fill-opacity="0.302"><g transform="translate(77.652968, 208.352946)"><g><path d="M 0.96875 0 L 10.769531 0 L 12.464844 -4.660156 L 26.804688 -4.660156 L 28.558594 0 L 38.300781 0 L 20.089844 -44.835938 L 19.179688 -44.835938 Z M 15.609375 -12.765625 L 19.664062 -24.019531 L 23.597656 -12.765625 Z M 15.609375 -12.765625 "/></g></g></g><g fill="#2d5cdd" fill-opacity="0.302"><g transform="translate(114.679839, 208.352946)"><g><path d="M 26.382812 0 L 36.183594 0 L 26.140625 -17.851562 C 38.84375 -21.539062 37.332031 -43.261719 21.902344 -43.261719 L 4.839844 -43.261719 L 4.839844 0 L 13.492188 0 L 13.492188 -16.519531 L 17.667969 -16.519531 Z M 13.492188 -24.929688 L 13.492188 -34.609375 L 21.117188 -34.609375 C 26.984375 -34.609375 26.984375 -24.929688 21.117188 -24.929688 Z M 13.492188 -24.929688 "/></g></g></g><g fill="#2d5cdd" fill-opacity="0.302"><g transform="translate(149.286638, 208.352946)"><g><path d="M 4.839844 0 L 13.492188 0 L 13.492188 -16.941406 L 24.988281 0 L 35.699219 0 L 20.453125 -21.902344 L 34.488281 -43.261719 L 24.382812 -43.261719 L 13.492188 -26.019531 L 13.492188 -43.261719 L 4.839844 -43.261719 Z M 4.839844 0 "/></g></g></g><g fill="#2d5cdd" fill-opacity="0.302"><g transform="translate(183.348921, 208.352946)"><g><path d="M 35.09375 0 L 35.09375 -43.261719 L 26.441406 -43.261719 L 26.441406 -25.957031 L 13.492188 -25.957031 L 13.492188 -43.261719 L 4.839844 -43.261719 L 4.839844 0 L 13.492188 0 L 13.492188 -17.304688 L 26.441406 -17.304688 L 26.441406 0 Z M 35.09375 0 "/></g></g></g><g fill="#2d5cdd" fill-opacity="0.302"><g transform="translate(220.85981, 208.352946)"><g><path d="M 13.492188 0 L 13.492188 -43.261719 L 4.839844 -43.261719 L 4.839844 0 Z M 13.492188 0 "/></g></g></g><g fill="#2d5cdd" fill-opacity="0.302"><g transform="translate(236.771529, 208.352946)"><g><path d="M 25.65625 0.605469 C 55.425781 0.605469 55.425781 -43.988281 25.65625 -43.988281 C -4.113281 -43.988281 -4.113281 0.605469 25.65625 0.605469 Z M 25.65625 -8.351562 C 8.351562 -8.351562 8.351562 -35.09375 25.65625 -35.09375 C 42.960938 -35.09375 42.960938 -8.351562 25.65625 -8.351562 Z M 25.65625 -8.351562 "/></g></g></g><g fill="#2d5cdd" fill-opacity="0.502"><g transform="translate(79.981271, 205.372854)"><g><path d="M 0.96875 0 L 10.769531 0 L 12.464844 -4.660156 L 26.804688 -4.660156 L 28.558594 0 L 38.300781 0 L 20.089844 -44.835938 L 19.179688 -44.835938 Z M 15.609375 -12.765625 L 19.664062 -24.019531 L 23.597656 -12.765625 Z M 15.609375 -12.765625 "/></g></g></g><g fill="#2d5cdd" fill-opacity="0.502"><g transform="translate(117.008141, 205.372854)"><g><path d="M 26.382812 0 L 36.183594 0 L 26.140625 -17.851562 C 38.84375 -21.539062 37.332031 -43.261719 21.902344 -43.261719 L 4.839844 -43.261719 L 4.839844 0 L 13.492188 0 L 13.492188 -16.519531 L 17.667969 -16.519531 Z M 13.492188 -24.929688 L 13.492188 -34.609375 L 21.117188 -34.609375 C 26.984375 -34.609375 26.984375 -24.929688 21.117188 -24.929688 Z M 13.492188 -24.929688 "/></g></g></g><g fill="#2d5cdd" fill-opacity="0.502"><g transform="translate(151.61494, 205.372854)"><g><path d="M 4.839844 0 L 13.492188 0 L 13.492188 -16.941406 L 24.988281 0 L 35.699219 0 L 20.453125 -21.902344 L 34.488281 -43.261719 L 24.382812 -43.261719 L 13.492188 -26.019531 L 13.492188 -43.261719 L 4.839844 -43.261719 Z M 4.839844 0 "/></g></g></g><g fill="#2d5cdd" fill-opacity="0.502"><g transform="translate(185.677223, 205.372854)"><g><path d="M 35.09375 0 L 35.09375 -43.261719 L 26.441406 -43.261719 L 26.441406 -25.957031 L 13.492188 -25.957031 L 13.492188 -43.261719 L 4.839844 -43.261719 L 4.839844 0 L 13.492188 0 L 13.492188 -17.304688 L 26.441406 -17.304688 L 26.441406 0 Z M 35.09375 0 "/></g></g></g><g fill="#2d5cdd" fill-opacity="0.502"><g transform="translate(223.188112, 205.372854)"><g><path d="M 13.492188 0 L 13.492188 -43.261719 L 4.839844 -43.261719 L 4.839844 0 Z M 13.492188 0 "/></g></g></g><g fill="#2d5cdd" fill-opacity="0.502"><g transform="translate(239.099831, 205.372854)"><g><path d="M 25.65625 0.605469 C 55.425781 0.605469 55.425781 -43.988281 25.65625 -43.988281 C -4.113281 -43.988281 -4.113281 0.605469 25.65625 0.605469 Z M 25.65625 -8.351562 C 8.351562 -8.351562 8.351562 -35.09375 25.65625 -35.09375 C 42.960938 -35.09375 42.960938 -8.351562 25.65625 -8.351562 Z M 25.65625 -8.351562 "/></g></g></g><g fill="#2d5cdd" fill-opacity="1"><g transform="translate(82.309571, 202.392763)"><g><path d="M 0.96875 0 L 10.769531 0 L 12.464844 -4.660156 L 26.804688 -4.660156 L 28.558594 0 L 38.300781 0 L 20.089844 -44.835938 L 19.179688 -44.835938 Z M 15.609375 -12.765625 L 19.664062 -24.019531 L 23.597656 -12.765625 Z M 15.609375 -12.765625 "/></g></g></g><g fill="#2d5cdd" fill-opacity="1"><g transform="translate(119.336441, 202.392763)"><g><path d="M 26.382812 0 L 36.183594 0 L 26.140625 -17.851562 C 38.84375 -21.539062 37.332031 -43.261719 21.902344 -43.261719 L 4.839844 -43.261719 L 4.839844 0 L 13.492188 0 L 13.492188 -16.519531 L 17.667969 -16.519531 Z M 13.492188 -24.929688 L 13.492188 -34.609375 L 21.117188 -34.609375 C 26.984375 -34.609375 26.984375 -24.929688 21.117188 -24.929688 Z M 13.492188 -24.929688 "/></g></g></g><g fill="#2d5cdd" fill-opacity="1"><g transform="translate(153.94324, 202.392763)"><g><path d="M 4.839844 0 L 13.492188 0 L 13.492188 -16.941406 L 24.988281 0 L 35.699219 0 L 20.453125 -21.902344 L 34.488281 -43.261719 L 24.382812 -43.261719 L 13.492188 -26.019531 L 13.492188 -43.261719 L 4.839844 -43.261719 Z M 4.839844 0 "/></g></g></g><g fill="#2d5cdd" fill-opacity="1"><g transform="translate(188.005523, 202.392763)"><g><path d="M 35.09375 0 L 35.09375 -43.261719 L 26.441406 -43.261719 L 26.441406 -25.957031 L 13.492188 -25.957031 L 13.492188 -43.261719 L 4.839844 -43.261719 L 4.839844 0 L 13.492188 0 L 13.492188 -17.304688 L 26.441406 -17.304688 L 26.441406 0 Z M 35.09375 0 "/></g></g></g><g fill="#2d5cdd" fill-opacity="1"><g transform="translate(225.516412, 202.392763)"><g><path d="M 13.492188 0 L 13.492188 -43.261719 L 4.839844 -43.261719 L 4.839844 0 Z M 13.492188 0 "/></g></g></g><g fill="#2d5cdd" fill-opacity="1"><g transform="translate(241.428131, 202.392763)"><g><path d="M 25.65625 0.605469 C 55.425781 0.605469 55.425781 -43.988281 25.65625 -43.988281 C -4.113281 -43.988281 -4.113281 0.605469 25.65625 0.605469 Z M 25.65625 -8.351562 C 8.351562 -8.351562 8.351562 -35.09375 25.65625 -35.09375 C 42.960938 -35.09375 42.960938 -8.351562 25.65625 -8.351562 Z M 25.65625 -8.351562 "/></g></g></g></svg>